ply
format ascii 1.0
element vertex 494
property float32 x
property float32 y
property float32 z
element face 585
property list uint8 int32 vertex_indices
end_header
-0.094871 0.122902 0.022189
-0.094007 0.129802 0.01818
-0.092111 0.128137 0.031104
-0.094871 0.122902 0.022189
-0.092635 0.116935 0.008842
-0.092423 0.113974 0.016676
-0.091672 0.117524 0.028069
-0.084462 0.111705 0.028857
-0.086549 0.109 0.015694
-0.08536 0.109807 0.006222
-0.086972 0.121397 -0.001898
-0.081065 0.111196 -0.000918
-0.089109 0.099057 0.008227
-0.089659 0.099833 0.017847
-0.087413 0.09319 0.00484
-0.084777 0.09597 -0.003931
-0.086394 0.08557 -0.00084
-0.086853 0.081079 0.010849
-0.087724 0.085428 0.01422
-0.089823 0.092558 0.021822
-0.089126 0.137079 0.025122
-0.089609 0.141602 0.031992
-0.091498 0.150215 0.020796
-0.091717 0.141326 0.017134
-0.091075 0.135224 0.016144
-0.093435 0.121095 0.042248
-0.085941 0.125175 0.049068
-0.085225 0.114025 0.048015
-0.090341 0.1309 0.040068
-0.091018 0.149734 0.013441
-0.078078 0.154685 0.029078
-0.082537 0.151557 0.00365
-0.082061 0.154804 0.013629
-0.087751 0.128902 0.0009
-0.081644 0.129364 -0.004806
-0.088206 0.135559 0.003366
-0.087066 0.141474 0.040183
-0.085799 0.151046 0.029438
-0.090089 0.112403 0.037453
-0.08048 0.11408 0.047569
-0.074764 0.107316 0.036203
-0.08246 0.108623 0.027619
-0.078583 0.087018 0.037216
-0.07254 0.095957 0.04127
-0.070146 0.089763 0.04262
-0.073436 0.073412 0.03488
-0.08308 0.08145 0.02921
-0.082655 0.076999 0.021106
-0.076864 0.067957 0.011082
-0.069649 0.061738 0.018026
-0.061775 0.065542 0.032955
-0.0516 0.066088 0.036174
-0.059945 0.074585 0.041788
-0.045986 0.073503 0.042256
-0.047781 0.063839 0.037342
-0.053553 0.060429 0.026462
-0.049863 0.054275 0.015634
-0.079616 0.07032 0.016623
-0.08239 0.074996 0.003304
-0.079744 0.08191 -0.007905
-0.077799 0.073099 -0.005325
-0.075706 0.070108 -4.7e-05
-0.070947 0.140954 -0.00805
-0.078424 0.146692 -0.003613
-0.071911 0.144135 -0.014659
-0.075188 0.152833 -0.015966
-0.076643 0.149485 -0.008679
-0.074605 0.114104 -0.006416
-0.074281 0.117286 0.053631
-0.078951 0.128836 0.054193
-0.074827 0.11067 0.046334
-0.068718 0.114088 0.050433
-0.065799 0.120921 0.051999
-0.07526 0.12723 0.053502
-0.068515 0.132239 0.047795
-0.060796 0.125745 0.042799
-0.055094 0.114335 0.035233
-0.066457 0.110304 0.037295
-0.074816 0.084473 -0.015099
-0.069516 0.075346 -0.014957
-0.065841 0.083605 -0.018912
-0.058997 0.084194 -0.020854
-0.055926 0.079634 -0.020972
-0.059077 0.069973 -0.015104
-0.065608 0.066936 -0.007497
-0.084037 0.145378 0.00481
-0.075578 0.154868 -0.000834
-0.065862 0.153866 -0.001908
-0.064196 0.142314 -0.00784
-0.071191 0.155859 0.001279
-0.079635 0.167489 -0.036775
-0.073907 0.171564 -0.047586
-0.073324 0.170102 -0.027685
-0.079604 0.174107 -0.04639
-0.076982 0.179572 -0.051371
-0.067905 0.173751 -0.043985
-0.07075 0.162623 -0.045378
-0.062777 0.161085 -0.04721
-0.065589 0.167628 -0.059737
-0.060545 0.169731 -0.062221
-0.063846 0.180771 -0.058948
-0.069184 0.181162 -0.058506
-0.077835 0.145715 0.043808
-0.06993 0.14159 0.046209
-0.078459 0.159178 -0.022073
-0.074397 0.160314 -0.030905
-0.067096 0.164861 -0.018887
-0.074146 0.151129 -0.029188
-0.071388 0.147097 -0.026896
-0.072553 0.150608 -0.041367
-0.068864 0.156533 -0.053205
-0.067194 0.151677 -0.045577
-0.064944 0.157314 -0.05448
-0.055002 0.153297 0.028117
-0.067871 0.156792 0.022379
-0.064662 0.151974 0.036264
-0.063799 0.143909 0.03892
-0.059685 0.147446 0.036516
-0.053935 0.139875 0.028353
-0.062587 0.137282 0.036031
-0.063449 0.097112 -0.017938
-0.05433 0.097111 -0.022408
-0.061313 0.103293 -0.018311
-0.069386 0.061033 0.009766
-0.072853 0.03555 0.002529
-0.069196 0.034579 -0.00602
-0.069476 0.042643 0.000668
-0.06985 0.033539 0.004727
-0.059835 0.102266 0.042689
-0.056884 0.092762 0.045348
-0.062044 0.114243 0.037354
-0.050136 0.110464 0.037566
-0.047007 0.099425 0.042698
-0.050053 0.09618 0.044423
-0.061651 0.157813 -0.019788
-0.067561 0.044863 0.007377
-0.066229 0.042518 -0.003252
-0.059362 0.047606 0.000101
-0.057148 0.052574 0.000631
-0.057476 0.047878 0.009161
-0.056771 0.057251 0.007253
-0.057247 0.060528 -0.003067
-0.052512 0.051984 -0.007188
-0.053491 0.045812 -0.00755
-0.059944 0.033627 -0.010153
-0.048695 0.033571 -0.013389
-0.044911 0.04578 -0.010946
-0.042983 0.054604 -0.011188
-0.043908 0.067784 -0.016159
-0.034533 0.064421 -0.014132
-0.032809 0.050877 -0.011141
-0.039022 0.045911 -0.022759
-0.030353 0.04989 -0.019369
-0.030573 0.059945 -0.018933
-0.030094 0.067301 -0.02797
-0.02568 0.061671 -0.031107
-0.027082 0.048959 -0.025227
-0.033262 0.042424 -0.030211
-0.018756 0.044979 -0.027907
-0.016257 0.053183 -0.032944
-0.014088 0.062639 -0.03694
-0.007171 0.054903 -0.033099
-0.008375 0.045859 -0.029537
-0.008576 0.043164 -0.026091
0.001825 0.048337 -0.030067
0.003429 0.056934 -0.031203
0.008578 0.054156 -0.030513
0.013531 0.047821 -0.026028
0.005315 0.042896 -0.024171
-0.003268 0.03437 -0.017376
0.008998 0.03649 -0.023427
0.020591 0.043659 -0.020978
0.016325 0.035201 -0.018314
0.004456 0.033966 -0.021007
0.01195 0.034304 -0.011204
0.00754 0.038802 -0.009431
-0.004172 0.039154 -0.014111
-0.009828 0.034195 -0.024366
-0.071384 0.035533 0.010286
-0.059415 0.039567 0.019974
-0.062211 0.147546 -0.005052
-0.059774 0.149902 -0.001229
-0.056918 0.136838 -0.00528
-0.066997 0.062934 -0.001956
-0.068755 0.11606 -0.008746
-0.056704 0.111275 -0.017686
-0.060035 0.121358 -0.008732
-0.075927 0.125275 -0.008277
-0.052243 0.126999 -0.005034
-0.04674 0.129245 0.000886
-0.040696 0.125707 -0.008047
-0.04966 0.118919 -0.014131
-0.067902 0.146313 -0.025723
-0.064134 0.044628 0.034748
-0.06432 0.035936 0.024151
-0.066996 0.034958 0.03101
-0.064199 0.042219 0.027537
-0.055121 0.034056 0.024036
-0.067406 0.035436 0.036194
-0.061746 0.0426 0.042925
-0.057553 0.048178 0.038938
-0.055235 0.043304 0.04658
-0.060273 0.034788 0.045444
-0.046877 0.035027 0.045407
-0.049505 0.05028 0.036331
-0.054255 0.049028 0.029769
-0.051757 0.056601 0.019874
-0.050039 0.047811 0.016868
-0.05028 0.143741 0.000824
-0.05463 0.152755 -0.002679
-0.065353 0.085654 0.044968
-0.050393 0.085761 0.046102
-0.054071 0.123768 0.03808
-0.049178 0.130401 0.030288
-0.04924 0.118066 0.031545
-0.058863 0.156048 0.00954
-0.052736 0.163457 -0.000904
-0.050757 0.137975 0.001565
-0.055531 0.040944 -0.009922
-0.041303 0.084378 -0.021267
-0.046949 0.093514 -0.02192
-0.044493 0.149423 -0.00475
-0.046574 0.153815 0.009349
-0.051989 0.142827 0.01831
-0.048008 0.135924 0.010304
-0.048532 0.143887 0.006514
-0.051351 0.152104 0.013223
-0.053895 0.0972 0.043345
-0.044387 0.106839 0.040714
-0.038692 0.115422 0.033305
-0.045252 0.122806 0.025016
-0.037523 0.124042 0.025944
-0.030168 0.118019 0.030802
-0.026748 0.10975 0.038619
-0.018226 0.117876 0.036486
-0.016743 0.123139 0.030848
-0.027112 0.124435 0.018388
-0.02846 0.125795 0.008832
-0.014724 0.129248 0.015884
-0.005179 0.129883 0.025223
-0.003971 0.124981 0.033251
-0.01127 0.120275 0.036868
-0.040535 0.159216 -0.011492
-0.040635 0.159922 0.002471
-0.040541 0.166202 -0.012095
-0.039019 0.174111 -0.009029
-0.033558 0.173613 -0.001108
-0.026922 0.181455 -0.007884
-0.025189 0.178943 -0.01878
-0.021532 0.173488 -0.021241
-0.018495 0.165075 -0.017689
-0.026306 0.157004 -0.009894
-0.014691 0.160456 -0.011333
-0.00997 0.167686 -0.017702
-0.008588 0.16953 -0.02541
-0.011129 0.182158 -0.027227
-0.009716 0.176357 -0.030374
-0.051573 0.052359 0.030554
-0.04071 0.050423 0.039629
-0.051528 0.03355 0.007814
-0.030015 0.034351 0.018172
-0.034901 0.033747 0.010379
-0.029039 0.038221 0.00272
-0.03812 0.03825 -0.006977
-0.042372 0.033809 -0.003477
-0.039195 0.034033 -0.015253
-0.032684 0.038589 -0.016529
-0.036361 0.078336 -0.019535
-0.032331 0.078279 -0.031704
-0.022749 0.077591 -0.039002
-0.027674 0.086866 -0.036187
-0.033651 0.085644 -0.024757
-0.051433 0.067108 -0.012491
-0.036983 0.092657 0.044193
-0.040294 0.098952 0.041786
-0.029833 0.101135 0.04308
-0.030548 0.087232 0.043284
-0.042039 0.084825 0.042519
-0.030725 0.0793 0.041026
-0.025047 0.080547 0.05358
-0.023736 0.086541 0.054457
-0.025047 0.094997 0.044896
-0.01803 0.106099 0.042558
-0.016414 0.099612 0.044078
-0.020587 0.094703 0.05131
-0.033775 0.1054 -0.020968
-0.032558 0.114916 -0.016084
-0.039288 0.044575 0.041301
-0.031802 0.037839 0.032183
-0.032961 0.051054 0.038223
-0.035388 0.034596 0.034245
-0.037419 0.034781 0.041799
-0.044744 0.039642 -0.021577
-0.043908 0.034308 -0.026883
-0.029066 0.093469 -0.024545
-0.02324 0.093652 -0.032678
-0.020082 0.09787 -0.02453
-0.02564 0.106222 -0.022782
-0.036286 0.151198 0.000402
-0.028849 0.162315 -0.003816
-0.033646 0.165935 -0.004786
-0.025615 0.156162 -0.003544
-0.024682 0.159952 -0.001088
-0.046466 0.167133 0.003131
-0.038632 0.167867 0.002788
-0.042883 0.128827 0.014388
-0.031721 0.033828 -0.021186
-0.028854 0.124656 0.002099
-0.015397 0.125153 -0.004109
-0.011316 0.129221 0.00291
-0.034115 0.042437 0.048702
-0.030297 0.121635 -0.007023
-0.040331 0.10769 -0.01992
-0.039761 0.120231 -0.012793
-0.038661 0.063179 0.041795
-0.027746 0.064856 0.037498
-0.027792 0.053068 0.03654
-0.024903 0.039047 0.038063
-0.025891 0.048891 0.049042
-0.037174 0.08195 0.043756
-0.036903 0.033739 -0.030894
-0.027912 0.034067 -0.029247
-0.018345 0.033731 -0.026079
-0.036723 0.03421 0.02667
-0.027929 0.037711 0.020035
-0.036101 0.158265 0.004249
-0.02657 0.038204 0.055248
-0.021404 0.045562 0.053215
-0.012835 0.035252 0.050222
-0.006919 0.034711 0.042546
-0.018605 0.049922 0.047107
-0.022206 0.03869 -0.017188
-0.022318 0.181221 -0.012616
-0.013982 0.178957 -0.021269
-0.019943 0.187176 -0.01595
-0.014584 0.185601 -0.026982
-0.020732 0.114935 -0.016742
-0.014324 0.10368 -0.023389
-0.013342 0.112081 -0.018621
-0.006156 0.110566 -0.022214
-0.00278 0.100393 -0.023542
-0.008683 0.097657 -0.030445
-0.015214 0.091053 -0.037504
-0.005859 0.087537 -0.037176
0.004647 0.093885 -0.032195
0.006642 0.099379 -0.022123
0.016944 0.094696 -0.024307
0.014113 0.087083 -0.030146
0.005912 0.084442 -0.033198
-0.002226 0.083034 -0.037089
-0.015261 0.076268 -0.038966
-0.021022 0.065418 -0.036655
-0.008517 0.074198 -0.037653
-0.012103 0.092198 0.056667
-0.009347 0.098183 0.051937
5.3e-05 0.097862 0.053297
0.002048 0.102202 0.043813
-0.008282 0.101652 0.04383
-0.006486 0.108283 0.04397
0.002438 0.114145 0.041742
-0.016813 0.062115 0.052682
-0.006309 0.051457 0.052597
-0.005881 0.062411 0.056478
-9.4e-05 0.052014 0.054278
0.000322 0.058135 0.054484
3e-05 0.068579 0.056492
-0.012589 0.069082 0.054415
-0.007645 0.079109 0.058188
0.012129 0.065567 0.053747
0.00941 0.060149 0.052895
0.006619 0.047417 0.050356
0.013667 0.055693 0.050689
0.020511 0.065463 0.048451
-0.004094 0.038391 0.008568
0.005046 0.034177 0.01576
-0.000694 0.038513 0.021743
0.002026 0.034165 0.004107
0.007509 0.034411 0.00467
0.019655 0.035085 -0.003456
-0.005608 0.125002 -0.009489
0.003607 0.126142 -0.007161
0.009753 0.120711 -0.014067
0.004929 0.114402 -0.020103
0.000547 0.063627 -0.034407
0.005296 0.08614 0.057126
0.007651 0.075327 0.056504
0.009088 0.097645 0.049418
0.014126 0.090787 0.052728
0.015592 0.078141 0.054165
0.02673 0.079214 0.047114
0.019647 0.086817 0.049574
0.023359 0.095899 0.046777
0.034274 0.091666 0.040805
0.032967 0.077598 0.041811
0.026908 0.070176 0.043296
0.039512 0.070945 0.033551
0.03432 0.060597 0.039225
0.026136 0.060229 0.044245
0.020741 0.05555 0.0481
0.023003 0.049323 0.039928
0.026269 0.039553 0.030992
0.033645 0.049093 0.031488
0.039845 0.059964 0.030392
0.04302 0.04912 0.032996
0.049174 0.044307 0.021629
0.034684 0.038735 0.024611
0.022319 0.035282 0.024092
0.025074 0.034411 0.011174
0.034111 0.035601 0.011664
0.044118 0.040892 0.004384
0.048793 0.042901 0.011011
0.056546 0.049738 0.018075
0.057159 0.050804 0.007605
0.04738 0.047547 -0.002962
0.037023 0.040523 -0.002041
0.041065 0.050916 -0.007309
0.053557 0.058091 -0.003559
0.061282 0.060979 0.008052
0.051888 0.065658 -0.001557
0.042068 0.063212 -0.002158
0.038928 0.064147 -0.010753
0.031952 0.069103 -0.018709
0.030795 0.058601 -0.017734
0.030796 0.048804 -0.007779
0.022728 0.039972 -0.005642
0.022565 0.045669 -0.01854
0.028058 0.049173 -0.018234
0.021937 0.055669 -0.027055
-0.004483 0.039218 0.035614
0.007859 0.03924 0.030372
0.004891 0.034575 0.043617
0.002619 0.034323 0.019675
0.004325 0.035606 0.045888
-0.006058 0.045881 0.047354
0.011322 0.045022 0.044806
0.009041 0.035141 0.035926
-0.002499 0.112386 -0.01964
0.011484 0.123198 0.03427
0.012743 0.127966 0.027041
0.021424 0.121505 0.031182
0.023135 0.125159 0.021213
0.006439 0.132232 0.014596
0.007587 0.130944 0.001903
0.018408 0.127764 0.003915
0.030267 0.120025 0.005493
0.032239 0.117348 0.02313
0.028693 0.111728 0.03455
0.027865 0.103405 0.039124
0.017255 0.109608 0.039746
-0.003043 0.073778 0.059461
0.003858 0.062044 0.056777
-0.002871 0.068252 -0.034506
0.010879 0.066111 -0.031139
0.01127 0.104834 -0.020502
0.011888 0.102476 0.047452
0.008721 0.073259 -0.033724
0.023069 0.121925 -0.004197
0.019617 0.034742 0.021397
0.012972 0.034672 0.029418
0.021085 0.061931 -0.02658
0.01765 0.043039 0.044185
0.028021 0.046282 0.036458
0.021961 0.100321 -0.02116
0.025109 0.111719 -0.01249
0.029469 0.095176 -0.018643
0.024869 0.084767 -0.02456
0.014356 0.076788 -0.030104
0.021876 0.069295 -0.0275
0.01712 0.034271 0.001954
0.025586 0.034909 0.002751
0.032698 0.111022 -0.007977
0.035495 0.103128 -0.011159
0.041527 0.097216 -0.003903
0.037727 0.085584 -0.016367
0.043233 0.089594 -0.006456
0.03922 0.077501 -0.010108
0.032361 0.07869 -0.019246
0.040252 0.102372 0.02622
0.039804 0.089822 0.033495
0.045346 0.082603 0.023076
0.052646 0.072994 0.020857
0.044646 0.069351 0.024242
0.022227 0.051381 -0.024145
0.036614 0.054238 -0.006713
0.044133 0.080232 -0.002522
0.046713 0.072341 0.005563
0.057575 0.067384 0.002722
0.054837 0.073109 0.009023
0.04679 0.073773 0.016792
0.05767 0.071756 0.018414
0.051687 0.064527 0.029555
0.053744 0.054858 0.027754
0.060392 0.069417 0.011831
0.059989 0.062227 0.021516
3 0 1 2
3 3 4 1
3 3 5 4
3 3 6 5
3 5 7 6
3 5 8 7
3 5 9 8
3 4 5 9
3 9 10 4
3 9 11 10
3 9 12 11
3 8 9 12
3 12 13 8
3 12 14 13
3 12 15 14
3 14 16 15
3 14 17 16
3 14 18 17
3 13 14 18
3 18 19 13
3 2 1 20
3 20 21 2
3 20 22 21
3 20 23 22
3 20 24 23
3 25 26 27
3 25 28 26
3 25 2 28
3 22 29 30
3 22 23 29
3 29 31 23
3 29 32 31
3 24 10 33
3 33 34 10
3 35 33 34
3 28 21 36
3 36 37 21
3 38 39 40
3 38 27 39
3 6 8 41
3 13 19 42
3 42 41 13
3 42 40 41
3 42 43 40
3 42 44 43
3 42 45 44
3 46 42 45
3 45 47 46
3 45 48 47
3 45 49 48
3 45 50 49
3 45 51 50
3 45 52 51
3 51 53 52
3 51 54 53
3 51 55 54
3 50 51 55
3 55 56 50
3 17 57 47
3 17 58 57
3 16 17 58
3 58 59 16
3 58 60 59
3 58 61 60
3 58 48 61
3 57 58 48
3 35 62 63
3 34 35 62
3 62 64 34
3 62 65 64
3 62 66 65
3 10 11 67
3 26 68 69
3 26 39 68
3 68 70 39
3 68 71 70
3 68 72 71
3 68 73 72
3 72 74 73
3 72 75 74
3 72 76 75
3 72 77 76
3 72 70 77
3 77 40 70
3 15 59 78
3 78 79 59
3 78 80 79
3 79 81 80
3 79 82 81
3 79 83 82
3 79 84 83
3 79 60 84
3 85 63 86
3 86 66 63
3 86 87 66
3 66 88 87
3 66 64 88
3 89 87 63
3 90 91 92
3 90 93 91
3 91 94 93
3 91 95 94
3 91 96 95
3 95 97 96
3 95 98 97
3 95 99 98
3 95 100 99
3 95 101 100
3 94 95 101
3 69 102 103
3 69 36 102
3 104 105 106
3 104 107 105
3 104 108 107
3 107 109 108
3 105 107 109
3 109 110 105
3 109 111 110
3 110 112 111
3 110 98 112
3 30 113 114
3 30 115 113
3 37 30 115
3 115 116 37
3 115 117 116
3 113 115 117
3 117 118 113
3 117 119 118
3 116 117 119
3 119 103 116
3 120 121 80
3 120 122 121
3 61 48 123
3 124 125 126
3 124 127 125
3 43 128 129
3 40 43 128
3 128 130 40
3 128 76 130
3 128 131 76
3 128 132 131
3 128 133 132
3 129 128 133
3 108 65 134
3 134 106 65
3 135 136 127
3 135 137 136
3 135 138 137
3 135 139 138
3 138 140 139
3 138 141 140
3 138 142 141
3 138 143 142
3 138 136 143
3 143 144 136
3 143 145 144
3 143 146 145
3 143 147 146
3 142 143 147
3 147 148 142
3 147 149 148
3 147 150 149
3 146 147 150
3 150 151 146
3 150 152 151
3 150 153 152
3 149 150 153
3 153 154 149
3 153 155 154
3 153 156 155
3 152 153 156
3 156 157 152
3 156 158 157
3 156 159 158
3 155 156 159
3 159 160 155
3 159 161 160
3 159 162 161
3 158 159 162
3 162 163 158
3 162 164 163
3 161 162 164
3 164 165 161
3 164 166 165
3 164 167 166
3 164 168 167
3 163 164 168
3 168 169 163
3 168 170 169
3 167 168 170
3 170 171 167
3 170 172 171
3 170 173 172
3 172 174 173
3 173 175 174
3 173 169 175
3 175 176 169
3 169 177 176
3 176 163 177
3 178 126 179
3 179 136 126
3 126 125 136
3 89 180 181
3 89 86 180
3 180 64 86
3 180 108 64
3 88 180 182
3 183 123 140
3 140 141 183
3 183 84 141
3 61 183 84
3 184 122 185
3 184 186 187
3 187 188 186
3 187 182 188
3 188 189 182
3 188 190 189
3 188 191 190
3 186 188 191
3 192 65 107
3 193 194 195
3 196 179 194
3 194 197 179
3 198 193 199
3 199 200 193
3 199 201 200
3 202 199 201
3 201 203 202
3 201 204 203
3 200 201 204
3 204 205 200
3 204 55 205
3 205 206 55
3 205 207 206
3 205 179 207
3 207 139 179
3 207 56 139
3 206 207 56
3 181 208 209
3 181 182 208
3 210 129 211
3 211 132 129
3 118 119 212
3 212 213 118
3 212 214 213
3 212 76 214
3 215 216 209
3 208 182 217
3 136 137 218
3 81 219 220
3 81 82 219
3 215 221 222
3 215 87 221
3 113 118 223
3 223 224 118
3 223 225 224
3 223 226 225
3 225 208 226
3 227 228 133
3 227 131 228
3 228 229 131
3 131 230 229
3 229 231 230
3 229 232 231
3 229 233 232
3 232 234 233
3 232 235 234
3 232 236 235
3 231 232 236
3 236 237 231
3 236 238 237
3 236 239 238
3 235 236 239
3 239 240 235
3 235 241 240
3 234 235 241
3 216 242 243
3 216 244 242
3 216 245 244
3 216 246 245
3 245 247 246
3 245 248 247
3 245 249 248
3 245 250 249
3 244 245 250
3 250 251 244
3 250 252 251
3 250 253 252
3 250 254 253
3 249 250 254
3 254 255 249
3 254 256 255
3 257 207 258
3 259 260 261
3 261 262 260
3 261 263 262
3 264 261 263
3 263 265 264
3 263 266 265
3 263 150 266
3 259 142 137
3 82 83 148
3 148 267 82
3 148 268 267
3 148 154 268
3 268 269 154
3 268 270 269
3 268 271 270
3 267 268 271
3 271 219 267
3 272 83 141
3 217 208 224
3 211 132 273
3 273 274 132
3 273 275 274
3 273 276 275
3 277 273 276
3 276 278 277
3 276 279 278
3 276 280 279
3 276 281 280
3 275 276 281
3 281 282 275
3 281 283 282
3 281 284 283
3 191 285 286
3 191 185 285
3 287 288 289
3 287 290 288
3 287 291 290
3 287 203 291
3 292 293 265
3 292 157 293
3 292 151 157
3 220 294 285
3 220 270 294
3 294 295 270
3 294 296 295
3 294 297 296
3 285 294 297
3 222 221 243
3 243 298 221
3 243 299 298
3 243 300 299
3 243 242 300
3 300 251 242
3 299 300 251
3 251 301 299
3 251 252 301
3 301 302 252
3 303 243 304
3 230 231 305
3 293 151 306
3 237 307 224
3 237 308 307
3 237 309 308
3 237 238 309
3 258 289 310
3 311 312 313
3 311 286 312
3 314 315 316
3 314 51 315
3 291 310 317
3 317 318 310
3 317 316 318
3 288 317 316
3 53 319 278
3 320 306 321
3 321 322 306
3 321 158 322
3 322 177 158
3 323 288 324
3 301 302 325
3 310 318 326
3 326 327 318
3 326 328 327
3 327 329 328
3 327 330 329
3 318 327 330
3 266 321 331
3 332 333 248
3 332 334 333
3 333 335 334
3 333 255 335
3 336 337 297
3 336 338 337
3 337 339 338
3 337 340 339
3 337 341 340
3 337 296 341
3 341 342 296
3 341 343 342
3 341 344 343
3 340 341 344
3 344 345 340
3 344 346 345
3 344 347 346
3 344 348 347
3 343 344 348
3 348 349 343
3 343 350 349
3 342 343 350
3 350 269 342
3 350 351 269
3 350 160 351
3 350 352 160
3 349 350 352
3 279 280 353
3 353 284 280
3 353 354 284
3 353 355 354
3 354 356 355
3 354 357 356
3 354 283 357
3 357 358 283
3 356 357 358
3 358 359 356
3 358 241 359
3 330 360 361
3 330 316 360
3 361 360 362
3 362 363 361
3 362 364 363
3 362 365 364
3 362 366 365
3 365 367 366
3 365 368 367
3 365 369 368
3 364 365 369
3 369 370 364
3 369 371 370
3 369 372 371
3 368 369 372
3 373 374 375
3 373 376 374
3 374 377 376
3 376 175 377
3 377 378 175
3 174 175 378
3 308 309 379
3 379 380 309
3 379 381 380
3 379 382 381
3 379 339 382
3 160 161 383
3 253 256 333
3 367 384 385
3 367 355 384
3 384 386 355
3 384 387 386
3 384 388 387
3 385 384 388
3 388 368 385
3 388 389 368
3 388 390 389
3 387 388 390
3 390 391 387
3 390 392 391
3 390 393 392
3 389 390 393
3 393 394 389
3 393 395 394
3 394 396 395
3 394 397 396
3 394 372 397
3 397 398 372
3 397 399 398
3 397 400 399
3 397 401 400
3 396 397 401
3 401 402 396
3 401 403 402
3 401 404 403
3 401 405 404
3 400 401 405
3 405 406 400
3 405 407 406
3 405 408 407
3 405 409 408
3 405 410 409
3 404 405 410
3 410 411 404
3 410 412 411
3 410 413 412
3 409 410 413
3 413 414 409
3 413 415 414
3 413 416 415
3 412 413 416
3 416 417 412
3 416 418 417
3 416 419 418
3 415 416 419
3 419 420 415
3 415 421 420
3 415 422 421
3 415 423 422
3 414 415 423
3 423 424 414
3 423 425 424
3 423 426 425
3 422 423 426
3 426 427 422
3 426 171 427
3 428 429 430
3 428 375 429
3 429 431 375
3 429 374 431
3 432 433 370
3 370 434 432
3 432 435 434
3 432 428 435
3 436 340 338
3 239 240 437
3 437 438 239
3 437 439 438
3 438 440 439
3 438 441 440
3 440 442 441
3 440 443 442
3 440 444 443
3 440 445 444
3 439 440 445
3 445 446 439
3 445 447 446
3 446 448 447
3 439 446 448
3 449 385 450
3 451 383 452
3 452 165 383
3 436 339 453
3 356 448 454
3 356 359 448
3 348 349 455
3 442 443 456
3 429 457 458
3 458 406 457
3 166 427 459
3 166 167 427
3 434 435 460
3 460 399 434
3 460 461 399
3 460 400 461
3 381 462 463
3 381 453 462
3 462 346 453
3 462 464 346
3 346 465 464
3 346 347 465
3 465 466 347
3 452 459 467
3 468 407 469
3 456 463 470
3 470 471 463
3 470 472 471
3 471 464 472
3 472 473 464
3 472 474 473
3 473 475 474
3 473 476 475
3 473 465 476
3 447 477 478
3 478 479 477
3 478 480 479
3 478 481 480
3 422 482 483
3 483 171 482
3 421 427 467
3 419 420 484
3 484 485 419
3 418 419 485
3 485 486 418
3 485 487 486
3 485 488 487
3 484 485 488
3 395 488 481
3 481 489 488
3 481 490 489
3 402 481 490
3 403 404 491
3 417 418 492
3 492 493 417
3 492 489 493
3 487 492 489
3 491 490 493
